<svg id="Layer_1" enable-background="new 0 0 513 513" height="512" viewBox="0 0 513 513" width="512" xmlns="http://www.w3.org/2000/svg"><g><path d="m513 256.5c0 35.26-7.09 69.43-20.61 100.89-12.69 29.55-31.05 56.71-54.52 80.13-47.75 47.65-110.99 74.2-178.39 74.96-.99.01-1.99.02-2.98.02-5.04 0-10.05-.14-15.04-.43-42.65-2.44-83.33-15.27-119.11-37.26-16.94-10.42-32.79-22.89-47.22-37.29-48.45-48.35-75.13-112.64-75.13-181.02 0-17.34 1.72-34.42 5.08-51.04 9.85-48.92 33.89-93.89 70.05-129.98 38.26-38.18 86.47-62.82 138.79-71.48 9.08-1.51 18.28-2.54 27.58-3.06 4.98-.29 9.98-.44 15-.44 68.51 0 132.92 26.63 181.37 74.98 27.89 27.83 48.56 60.94 61.08 97.08 9.25 26.64 14.05 54.92 14.05 83.94z" fill="#00b1ff"/><path d="m513 256.5c0 35.26-7.09 69.43-20.61 100.89-12.69 29.55-31.05 56.71-54.52 80.13-47.75 47.65-110.99 74.2-178.39 74.96-.99.01-1.99.02-2.98.02-5.04 0-10.05-.14-15.04-.43 134.42-7.75 241.04-119.21 241.04-255.57 0-136.34-106.6-247.8-241-255.56 4.98-.29 9.98-.44 15-.44 68.51 0 132.92 26.63 181.37 74.98 27.89 27.83 48.56 60.94 61.08 97.08 9.25 26.64 14.05 54.92 14.05 83.94z" fill="#008cff"/><g fill="#99f5d2"><path d="m498.95 172.56-26.12 13.99-34.2 18.32c-6.84 3.72-14.37 5.6-21.92 5.6-6.06 0-12.13-1.21-17.9-3.63-12.94-5.44-22.57-16.29-26.41-29.78l-17.16-60.24c-4.18-14.66-18.22-24.03-33.41-22.28l-33.56 3.87c-20.98 2.42-40.84-9.66-48.32-29.37l-26.03-65.04c9.08-1.51 18.28-2.54 27.58-3.06 4.98-.29 9.98-.44 15-.44 68.51 0 132.92 26.63 181.37 74.98 27.89 27.83 48.56 60.94 61.08 97.08z"/><path d="m136.94 458.7-14.59 16.11c-16.94-10.42-32.79-22.89-47.22-37.29-48.45-48.35-75.13-112.64-75.13-181.02 0-17.34 1.72-34.42 5.08-51.04l64.5 28.02c.04.01.08.03.12.05 18.91 8.59 32.37 25.13 36.92 45.37 4.54 20.21-.53 40.89-13.92 56.72-1.51 1.78-1.39 3.7-1.18 4.68s.87 2.78 2.99 3.81l22.82 11.08c18.89 9.17 31.96 26.25 35.86 46.86 3.89 20.59-2.03 41.24-16.25 56.65z"/><path d="m492.39 357.39c-12.69 29.55-31.05 56.71-54.52 80.13-47.75 47.65-110.99 74.2-178.39 74.96l.71-2.18 25.89-79.67c4.97-15.27 17.13-27.15 32.54-31.78 15.42-4.63 32.15-1.41 44.74 8.62 10.95 8.71 26.41 9.82 38.49 2.76l47.55-27.75z"/></g><path d="m449.4 382.48 42.99-25.09c-12.69 29.55-31.05 56.71-54.52 80.13-47.75 47.65-110.99 74.2-178.39 74.96l.71-2.18c81.25-10.68 150.5-59.47 189.21-127.82z" fill="#69d8e4"/><path d="m241.5.94c4.98-.29 9.98-.44 15-.44 68.51 0 132.92 26.63 181.37 74.98 27.89 27.83 48.56 60.94 61.08 97.08l-26.12 13.99c-29.13-102.76-120.84-179.23-231.33-185.61z" fill="#69d8e4"/><g><path d="m304.775 264.02c-1.24 8.13-4.46 15.63-9.14 21.98l14.18 14.18c12.83-8.72 30.5-7.39 41.86 3.97 6.24 6.24 9.67 14.52 9.67 23.34 0 8.81-3.43 17.1-9.67 23.34-6.43 6.43-14.88 9.65-23.33 9.65s-16.9-3.22-23.34-9.65c-6.23-6.24-9.66-14.53-9.66-23.34 0-5.8 1.49-11.38 4.28-16.29l-14.61-14.6c-6.34 4.68-13.84 7.89-21.97 9.12v21.97c9.15 3.13 15.75 11.81 15.75 22.01 0 12.82-10.43 23.25-23.25 23.25s-23.25-10.43-23.25-23.25c0-10.2 6.6-18.88 15.75-22.01v-21.97c-8.14-1.24-15.64-4.45-21.99-9.13l-15.55 15.54c4.27 8.69 2.79 19.5-4.42 26.71-4.53 4.54-10.49 6.8-16.44 6.8-5.96 0-11.91-2.26-16.44-6.8-4.39-4.39-6.81-10.23-6.81-16.44s2.42-12.05 6.81-16.44 10.23-6.81 16.44-6.81c3.61 0 7.1.82 10.26 2.37l15.54-15.54c-4.68-6.34-7.89-13.83-9.13-21.96h-20.96c-3.14 9.14-11.82 15.73-22.01 15.73-12.82 0-23.25-10.43-23.25-23.25s10.43-23.25 23.25-23.25c10.21 0 18.9 6.61 22.02 15.77h20.94c1.23-8.15 4.44-15.65 9.13-22.01l-14.41-14.41c-5.18 3.23-11.17 4.96-17.42 4.96-8.82 0-17.11-3.43-23.34-9.67-12.87-12.86-12.87-33.8 0-46.67 6.23-6.23 14.52-9.66 23.34-9.66 8.81 0 17.1 3.43 23.33 9.66 11.05 11.05 12.61 28.04 4.69 40.77l14.41 14.41c6.35-4.69 13.86-7.91 22.01-9.15v-21.94c-9.15-3.12-15.75-11.81-15.75-22.01 0-12.82 10.43-23.25 23.25-23.25s23.25 10.43 23.25 23.25c0 10.2-6.6 18.89-15.75 22.01v21.94c8.14 1.24 15.64 4.45 21.99 9.13l15.53-15.52c-1.55-3.15-2.37-6.64-2.37-10.26 0-6.21 2.42-12.05 6.81-16.44 9.07-9.07 23.82-9.07 32.88 0 4.39 4.39 6.81 10.23 6.81 16.44s-2.42 12.05-6.81 16.44c-4.53 4.54-10.48 6.8-16.44 6.8-3.52 0-7.04-.79-10.27-2.38l-15.53 15.53c4.69 6.36 7.91 13.87 9.14 22.03h20.94c3.12-9.16 11.81-15.77 22.02-15.77 12.82 0 23.25 10.43 23.25 23.25s-10.43 23.25-23.25 23.25c-10.19 0-18.87-6.59-22.01-15.73z" fill="#ff2261"/><path d="m304.775 264.02c-1.24 8.13-4.46 15.63-9.14 21.98l14.18 14.18c13.79-9.37 33.16-7.14 44.29 6.68 4.15 5.15 6.66 11.51 7.15 18.11.72 9.74-2.75 19.03-9.58 25.86-6.43 6.43-14.88 9.65-23.33 9.65s-16.9-3.22-23.34-9.65c-6.23-6.24-9.66-14.53-9.66-23.34 0-5.8 1.49-11.38 4.28-16.29l-14.61-14.6c-6.34 4.68-13.84 7.89-21.97 9.12v21.97c9.15 3.13 15.75 11.81 15.75 22.01 0 11.15-7.89 20.5-18.39 22.74 4.87-4.18 7.95-10.38 7.95-17.3 0-7.519-3.636-14.189-9.25-18.341-2.257-1.669-3.56-4.331-3.56-7.137v-22.932c0-2.766 1.972-5.158 4.698-5.63 17.111-2.959 30.302-21.799 30.302-44.6s-13.191-41.642-30.302-44.6c-2.725-.471-4.698-2.864-4.698-5.63v-22.932c0-2.807 1.303-5.468 3.56-7.137 5.615-4.152 9.25-10.821 9.25-18.341 0-6.92-3.08-13.12-7.95-17.3 10.5 2.24 18.39 11.59 18.39 22.74 0 10.2-6.6 18.89-15.75 22.01v21.94c8.14 1.24 15.64 4.45 21.99 9.13l15.53-15.52c-2.08-4.22-2.84-9.06-2.08-14 .52-3.38 1.82-6.62 3.78-9.43 8.54-12.23 25.58-13.32 35.62-3.27 4.39 4.39 6.81 10.23 6.81 16.44s-2.42 12.05-6.81 16.44c-4.53 4.54-10.48 6.8-16.44 6.8-3.52 0-7.04-.79-10.27-2.38l-15.53 15.53c4.69 6.36 7.91 13.87 9.14 22.03h20.94c3.35-9.83 13.12-16.73 24.3-15.66 10.82 1.03 19.61 9.67 20.82 20.47 1.57 14.01-9.4 25.92-23.1 25.92-10.19 0-18.87-6.59-22.01-15.73z" fill="#b7305d"/><g fill="#99f5d2"><circle cx="245.318" cy="243.244" r="7.495"/><ellipse cx="251.048" cy="270.977" rx="7.495" ry="7.495" transform="matrix(.383 -.924 .924 .383 -95.374 399.216)"/><ellipse cx="271.457" cy="254.939" rx="7.495" ry="7.495" transform="matrix(.383 -.924 .924 .383 -67.958 408.172)"/></g></g></g></svg>