<svg id="Capa_1" enable-background="new 0 0 512 512" height="512" viewBox="0 0 512 512" width="512" xmlns="http://www.w3.org/2000/svg"><g><g fill="#ff415b"><path d="m241 0h30v70.056h-30z"/><path d="m130.918 29.496h30v70.056h-30z" transform="matrix(.866 -.5 .5 .866 -12.713 81.605)"/><path d="m50.332 110.082h30v70.056h-30z" transform="matrix(.5 -.866 .866 .5 -93.003 129.135)"/><path d="m.808 240.192h70.056v30h-70.056z"/></g><path d="m441.136 240.192h70.056v30h-70.056z" fill="#c50048"/><path d="m411.64 130.11h70.056v30h-70.056z" fill="#c50048" transform="matrix(.866 -.5 .5 .866 -12.712 242.777)"/><path d="m331.054 49.525h70.056v30h-70.056z" fill="#c50048" transform="matrix(.5 -.866 .866 .5 127.16 349.297)"/><path d="m384.21 180.144h-128.21l-20 276.808 199.297-20z" fill="#ff415b"/><path d="m127.79 180.144-51.086 256.808 179.296 20v-276.808z" fill="#ff7c48"/><path d="m301.024 346.88c0-24.826-20.198-45.024-45.024-45.024l-20 75.048h65.024z" fill="#81002f"/><path d="m256 301.856c-24.826 0-45.024 20.198-45.024 45.024v30.024h45.024z" fill="#c50048"/><path d="m331.048 361.904h-75.048l-20 95.048 95.048-20z" fill="#c50048"/><path d="m180.952 361.904v75.048l75.048 20v-95.048z" fill="#ff415b"/><path d="m435.297 436.952h-179.297l-20 37.524 20 37.524h194.226z" fill="#b4d2d7"/><path d="m76.704 436.952-14.93 75.048h194.226v-75.048z" fill="#e1ebf0"/></g></svg>