<svg width="500" height="400" viewBox="0 0 500 400" fill="none" xmlns="http://www.w3.org/2000/svg">
<path d="M47.9957 211.559C40.4979 154.461 23.7465 149.484 10.8654 120.664C-0.861494 94.4481 -10.3186 51.5611 22.7766 20.9006C74.1848 -26.7639 137.232 22.0091 137.232 22.0091C137.232 22.0091 237.139 87.4093 254.598 90.7347C272.058 94.0602 314.736 127.314 368.084 87.4093C421.432 47.5041 467.021 50.8295 481.57 80.7584C496.12 110.687 463.141 197.149 455.381 214.884C447.621 232.62 459.261 288.044 471.871 310.213C484.48 332.383 524.249 401.108 438.892 398.892C353.535 396.675 97.4639 400 97.4639 400C97.4639 400 5.54031 398.038 21.8066 295.803C35.3861 210.45 50.9056 233.728 47.9957 211.559Z" fill="#F8F8FF"/>
<path d="M80.974 203.799C91.688 203.799 100.373 193.874 100.373 181.63C100.373 169.386 91.688 159.46 80.974 159.46C70.2601 159.46 61.5747 169.386 61.5747 181.63C61.5747 193.874 70.2601 203.799 80.974 203.799Z" fill="#BAC5F4"/>
<path d="M48.4807 223.752C55.7126 223.752 61.5753 217.052 61.5753 208.787C61.5753 200.523 55.7126 193.823 48.4807 193.823C41.2488 193.823 35.3862 200.523 35.3862 208.787C35.3862 217.052 41.2488 223.752 48.4807 223.752Z" fill="#BAC5F4"/>
<path d="M50.4207 182.738C54.4385 182.738 57.6955 179.016 57.6955 174.425C57.6955 169.833 54.4385 166.111 50.4207 166.111C46.403 166.111 43.146 169.833 43.146 174.425C43.146 179.016 46.403 182.738 50.4207 182.738Z" fill="#BAC5F4"/>
<path d="M480.6 353.444C491.314 353.444 500 343.518 500 331.274C500 319.03 491.314 309.104 480.6 309.104C469.887 309.104 461.201 319.03 461.201 331.274C461.201 343.518 469.887 353.444 480.6 353.444Z" fill="#BAC5F4"/>
<path d="M14.5316 77.4328C18.5493 77.4328 21.8063 73.7107 21.8063 69.1193C21.8063 64.5278 18.5493 60.8057 14.5316 60.8057C10.5138 60.8057 7.25684 64.5278 7.25684 69.1193C7.25684 73.7107 10.5138 77.4328 14.5316 77.4328Z" fill="#BAC5F4"/>
<path d="M135.778 368.962C154.795 368.962 170.211 351.344 170.211 329.611C170.211 307.879 154.795 290.26 135.778 290.26C116.76 290.26 101.344 307.879 101.344 329.611C101.344 351.344 116.76 368.962 135.778 368.962Z" fill="#E1E6FB"/>
<path d="M363.234 387.807C376.09 387.807 386.513 375.896 386.513 361.203C386.513 346.51 376.09 334.6 363.234 334.6C350.377 334.6 339.955 346.51 339.955 361.203C339.955 375.896 350.377 387.807 363.234 387.807Z" fill="#E1E6FB"/>
<path d="M452.471 238.162C459.435 238.162 465.08 231.711 465.08 223.752C465.08 215.793 459.435 209.342 452.471 209.342C445.507 209.342 439.861 215.793 439.861 223.752C439.861 231.711 445.507 238.162 452.471 238.162Z" fill="#E1E6FB"/>
<path d="M358.384 122.881C372.312 122.881 383.603 109.977 383.603 94.0602C383.603 78.1431 372.312 65.2397 358.384 65.2397C344.456 65.2397 333.165 78.1431 333.165 94.0602C333.165 109.977 344.456 122.881 358.384 122.881Z" fill="#E1E6FB"/>
<path d="M127.047 30.877C133.744 30.877 139.172 24.6734 139.172 17.021C139.172 9.36857 133.744 3.16504 127.047 3.16504C120.351 3.16504 114.923 9.36857 114.923 17.021C114.923 24.6734 120.351 30.877 127.047 30.877Z" fill="#E1E6FB"/>
<path d="M88.2486 306.887C94.9448 306.887 100.373 300.684 100.373 293.031C100.373 285.379 94.9448 279.176 88.2486 279.176C81.5524 279.176 76.124 285.379 76.124 293.031C76.124 300.684 81.5524 306.887 88.2486 306.887Z" fill="#E1E6FB"/>
<path d="M479.145 146.159C485.841 146.159 491.27 139.955 491.27 132.303C491.27 124.65 485.841 118.447 479.145 118.447C472.449 118.447 467.021 124.65 467.021 132.303C467.021 139.955 472.449 146.159 479.145 146.159Z" fill="#BAC5F4"/>
<path d="M459.745 382.264C466.977 382.264 472.84 375.564 472.84 367.3C472.84 359.035 466.977 352.335 459.745 352.335C452.514 352.335 446.651 359.035 446.651 367.3C446.651 375.564 452.514 382.264 459.745 382.264Z" fill="#BAC5F4"/>
<path d="M488.845 383.373C492.862 383.373 496.119 379.651 496.119 375.059C496.119 370.468 492.862 366.746 488.845 366.746C484.827 366.746 481.57 370.468 481.57 375.059C481.57 379.651 484.827 383.373 488.845 383.373Z" fill="#BAC5F4"/>
<path d="M313.244 242.545L331.932 188.594H341.365L317.107 254H309.471L285.258 188.594H294.646L313.244 242.545ZM359.424 254H350.799V188.594H359.424V254ZM375.236 254V188.594H393.699C399.389 188.594 404.421 189.852 408.793 192.367C413.165 194.883 416.535 198.462 418.9 203.104C421.296 207.745 422.509 213.076 422.539 219.096V223.273C422.539 229.443 421.341 234.848 418.945 239.49C416.579 244.132 413.18 247.696 408.748 250.182C404.346 252.667 399.21 253.94 393.34 254H375.236ZM383.861 195.691V246.947H392.936C399.584 246.947 404.75 244.881 408.434 240.748C412.147 236.615 414.004 230.73 414.004 223.094V219.275C414.004 211.848 412.252 206.083 408.748 201.98C405.274 197.848 400.333 195.751 393.924 195.691H383.861ZM339.883 353.42C337.667 356.594 334.567 358.975 330.584 360.562C326.631 362.12 322.019 362.898 316.748 362.898C311.417 362.898 306.686 361.656 302.553 359.17C298.42 356.654 295.215 353.09 292.939 348.479C290.693 343.867 289.54 338.521 289.48 332.441V326.736C289.48 316.883 291.771 309.247 296.354 303.826C300.965 298.406 307.434 295.695 315.76 295.695C322.588 295.695 328.083 297.447 332.246 300.951C336.409 304.425 338.954 309.367 339.883 315.775H331.258C329.641 307.12 324.49 302.793 315.805 302.793C310.025 302.793 305.637 304.829 302.643 308.902C299.678 312.945 298.18 318.815 298.15 326.512V331.857C298.15 339.195 299.827 345.035 303.182 349.377C306.536 353.689 311.073 355.846 316.793 355.846C320.027 355.846 322.857 355.486 325.283 354.768C327.709 354.049 329.715 352.836 331.303 351.129V336.439H316.164V329.432H339.883V353.42ZM404.615 331.408C404.615 337.817 403.537 343.417 401.381 348.209C399.225 352.971 396.17 356.609 392.217 359.125C388.264 361.641 383.652 362.898 378.381 362.898C373.23 362.898 368.663 361.641 364.68 359.125C360.697 356.579 357.597 352.971 355.381 348.299C353.195 343.597 352.072 338.161 352.012 331.992V327.275C352.012 320.986 353.105 315.431 355.291 310.609C357.477 305.788 360.562 302.104 364.545 299.559C368.558 296.983 373.14 295.695 378.291 295.695C383.532 295.695 388.144 296.968 392.127 299.514C396.14 302.029 399.225 305.698 401.381 310.52C403.537 315.311 404.615 320.896 404.615 327.275V331.408ZM396.035 327.186C396.035 319.429 394.478 313.484 391.363 309.352C388.249 305.189 383.891 303.107 378.291 303.107C372.84 303.107 368.543 305.189 365.398 309.352C362.284 313.484 360.682 319.234 360.592 326.602V331.408C360.592 338.925 362.164 344.84 365.309 349.152C368.483 353.435 372.84 355.576 378.381 355.576C383.951 355.576 388.264 353.555 391.318 349.512C394.373 345.439 395.945 339.614 396.035 332.037V327.186ZM425.549 343.537H418.047L417.463 296.594H426.178L425.549 343.537ZM417.148 357.822C417.148 356.475 417.553 355.352 418.361 354.453C419.2 353.525 420.428 353.061 422.045 353.061C423.662 353.061 424.89 353.525 425.729 354.453C426.567 355.352 426.986 356.475 426.986 357.822C426.986 359.17 426.567 360.293 425.729 361.191C424.89 362.06 423.662 362.494 422.045 362.494C420.428 362.494 419.2 362.06 418.361 361.191C417.553 360.293 417.148 359.17 417.148 357.822Z" fill="black"/>
<path d="M220 264.142C244.293 264.142 263.987 245.722 263.987 223C263.987 200.278 244.293 181.858 220 181.858C195.706 181.858 176.013 200.278 176.013 223C176.013 245.722 195.706 264.142 220 264.142Z" fill="#FF7C48"/>
<path d="M220 181.858V264.142C244.294 264.142 263.987 245.722 263.987 223C263.987 200.278 244.294 181.858 220 181.858V181.858Z" fill="#FF415B"/>
<path d="M274.319 248.002L263.421 242.117C265.811 237.386 267.343 232.206 267.828 226.75H274.542V230.865H282.561V215.135H274.542V219.25H267.828C267.343 213.795 265.811 208.614 263.421 203.883L274.319 197.998L277.055 202.431L284 198.68L274.518 183.32L267.574 187.07L270.31 191.503L259.4 197.394C256.136 193.014 252.06 189.202 247.377 186.149L250.743 180.696L254.553 182.754L258.563 176.258L243.999 168.393L239.989 174.888L243.799 176.946L240.439 182.388C235.381 180.152 229.842 178.72 224.009 178.266V166.5H229.482V159H210.518V166.5H215.991V178.266C210.158 178.719 204.619 180.152 199.561 182.388L196.201 176.946L200.011 174.888L196.001 168.393L181.437 176.258L185.447 182.753L189.257 180.696L192.623 186.149C187.94 189.202 183.864 193.014 180.6 197.394L169.69 191.502L172.426 187.07L165.482 183.32L156 198.68L162.945 202.43L165.681 197.998L176.579 203.883C174.189 208.614 172.657 213.794 172.172 219.25H165.458V215.135H157.439V230.865H165.458V226.75H172.172C172.657 232.205 174.189 237.386 176.579 242.117L165.681 248.002L162.945 243.57L156 247.32L165.482 262.68L172.426 258.93L169.69 254.498L180.6 248.606C183.864 252.986 187.94 256.798 192.622 259.851L189.256 265.304L185.447 263.247L181.437 269.742L196.001 277.607L200.011 271.112L196.201 269.054L199.561 263.612C204.619 265.848 210.158 267.28 215.99 267.734V279.5H210.518V287H229.481V279.5H224.009V267.734C229.842 267.281 235.381 265.848 240.439 263.612L243.798 269.054L239.989 271.112L243.998 277.607L258.562 269.742L254.553 263.247L250.743 265.304L247.377 259.851C252.06 256.798 256.136 252.986 259.399 248.606L270.309 254.498L267.573 258.93L274.518 262.68L283.999 247.32L277.055 243.57L274.319 248.002ZM220 260.392C197.956 260.392 180.022 243.618 180.022 223C180.022 202.382 197.956 185.608 220 185.608C242.044 185.608 259.978 202.382 259.978 223C259.978 243.618 242.044 260.392 220 260.392V260.392Z" fill="#FF415B"/>
<path d="M236.315 220.624C242.626 220.624 247.742 215.839 247.742 209.936C247.742 204.033 242.626 199.248 236.315 199.248C230.003 199.248 224.887 204.033 224.887 209.936C224.887 215.839 230.003 220.624 236.315 220.624Z" fill="#FFB655"/>
<path d="M234.039 249.827C238.561 245.597 238.561 238.738 234.039 234.508C229.516 230.278 222.183 230.278 217.66 234.508C213.137 238.738 213.137 245.597 217.66 249.827C222.183 254.057 229.516 254.057 234.039 249.827Z" fill="#FFB655"/>
<path d="M200.674 229.25C207.625 229.25 213.259 223.98 213.259 217.479C213.259 210.978 207.625 205.708 200.674 205.708C193.723 205.708 188.088 210.978 188.088 217.479C188.088 223.98 193.723 229.25 200.674 229.25Z" fill="#FFB655"/>
<path d="M236.315 220.624C242.626 220.624 247.742 215.839 247.742 209.936C247.742 204.033 242.626 199.248 236.315 199.248C230.003 199.248 224.887 204.033 224.887 209.936C224.887 215.839 230.003 220.624 236.315 220.624Z" fill="#FF7C48"/>
<path d="M274.319 248.002L263.421 242.117C265.811 237.386 267.343 232.206 267.828 226.75H274.542V230.865H282.561V215.135H274.542V219.25H267.828C267.343 213.795 265.811 208.614 263.421 203.883L274.319 197.998L277.055 202.431L284 198.68L274.518 183.32L267.574 187.07L270.31 191.503L259.4 197.394C256.136 193.014 252.06 189.202 247.377 186.149L250.744 180.696L254.553 182.754L258.563 176.258L243.999 168.393L239.989 174.888L243.799 176.946L240.439 182.388C235.381 180.152 229.842 178.72 224.01 178.266V166.5H229.482V159H220V185.608C242.044 185.608 259.978 202.382 259.978 223C259.978 243.618 242.044 260.392 220 260.392V287H229.482V279.5H224.01V267.734C229.842 267.281 235.381 265.848 240.439 263.612L243.799 269.054L239.989 271.112L243.999 277.607L258.563 269.742L254.553 263.247L250.744 265.304L247.377 259.851C252.06 256.798 256.136 252.986 259.4 248.606L270.31 254.498L267.573 258.93L274.518 262.68L284 247.32L277.055 243.57L274.319 248.002Z" fill="#E50058"/>
<path d="M237.45 242.169C237.45 236.195 232.254 231.335 225.867 231.335C223.727 231.335 221.722 231.883 220 232.833V251.505C221.722 252.455 223.727 253.003 225.867 253.003C232.254 253.003 237.45 248.143 237.45 242.169V242.169Z" fill="#FF7C48"/>
<path d="M156.703 233.246C155.895 240.164 153.334 245.51 149.021 249.283C144.739 253.027 139.034 254.898 131.906 254.898C124.18 254.898 117.98 252.128 113.309 246.588C108.667 241.048 106.346 233.635 106.346 224.352V218.062C106.346 211.983 107.424 206.637 109.58 202.025C111.766 197.413 114.851 193.88 118.834 191.424C122.817 188.938 127.429 187.695 132.67 187.695C139.618 187.695 145.188 189.642 149.381 193.535C153.574 197.398 156.014 202.759 156.703 209.617H148.033C147.285 204.406 145.652 200.633 143.137 198.297C140.651 195.961 137.162 194.793 132.67 194.793C127.16 194.793 122.832 196.829 119.688 200.902C116.573 204.975 115.016 210.77 115.016 218.287V224.621C115.016 231.719 116.498 237.364 119.463 241.557C122.428 245.749 126.576 247.846 131.906 247.846C136.698 247.846 140.367 246.768 142.912 244.611C145.488 242.425 147.195 238.637 148.033 233.246H156.703Z" fill="black"/>
</svg>
