<svg id="Layer_1" enable-background="new 0 0 512 512" height="512" viewBox="0 0 512 512" width="512" xmlns="http://www.w3.org/2000/svg"><g><path d="m473.919 379.065c17.306-33.585 27.083-71.683 27.083-112.067 0-135.311-109.691-245.002-245.002-245.002s-245.002 109.691-245.002 245.002c0 40.384 9.776 78.482 27.082 112.067z" fill="#ffdd40"/><path d="m149.733 487.789c32.146 15.504 68.186 24.211 106.267 24.211 38.061 0 74.087-8.69 106.221-24.178l66.646-47.236c6.086-6.061 11.862-12.432 17.286-19.101v-21.851h-376.265v26.692c4.21 4.913 8.611 9.658 13.192 14.223z" fill="#6289cc"/><path d="m409.598 236.348h-307.196c-6.957 0-12.65-5.692-12.65-12.65v-203.489c0-6.957 5.692-12.65 12.65-12.65h307.195c6.957 0 12.65 5.692 12.65 12.65v203.488c.001 6.958-5.692 12.651-12.649 12.651z" fill="#73c3f9"/><path d="m89.752 20.209v203.488c0 6.958 5.692 12.65 12.65 12.65h100.068c-10.923-12.399-2.726-23.296.367-26.633.534-.576.462-1.458-.12-1.984-4.685-4.235-1.552-8.56.206-10.38.498-.516.519-1.335.034-1.863-11.432-12.454-2.886-24.195.043-27.541.47-.537.429-1.338-.059-1.859-4.188-4.483-1.449-8.568.096-10.261.463-.508.464-1.272.031-1.806-14.998-18.515-1.382-34.188.589-36.283.156-.166.264-.364.322-.583l4.276-16.036c.085-.318.053-.656-.089-.953l-8.059-16.804c-.063-.131-.151-.253-.252-.357-6.946-7.098-2.882-13.293-.82-15.624.496-.561.449-1.393-.079-1.923-4.219-4.227-1.418-8.47.172-10.266.462-.522.46-1.312-.011-1.826-12.066-13.149-2.84-27.358.086-31.197.431-.566.35-1.354-.165-1.844-4.523-4.307-1.771-8.439-.069-10.269.498-.535.533-1.374.025-1.899-.193-.199-.366-.399-.522-.598h-96.068c-6.959.002-12.652 5.694-12.652 12.651z" fill="#4fabf7"/><g><path d="m399.361 235.37h-28.192l10.618 27.367c2.625 6.767 10.239 10.123 17.005 7.498 6.767-2.625 10.123-10.239 7.498-17.005z" fill="#2a428c"/></g><g><path d="m112.638 235.37-6.93 17.859c-2.625 6.767.731 14.38 7.498 17.005s14.38-.731 17.006-7.498l10.618-27.367h-28.192z" fill="#2a428c"/></g><path d="m434.779 401.821v19.521c0 3.554 1.398 6.774 3.663 9.165 8.06-8.988 15.463-18.575 22.14-28.686z" fill="#3c58a0"/><path d="m73.558 430.507c2.265-2.391 3.663-5.612 3.663-9.165v-19.521h-25.803c6.677 10.11 14.08 19.698 22.14 28.686z" fill="#3c58a0"/><path d="m52.745 403.836h406.509c6.098-9.04 11.595-18.517 16.464-28.359v-93.092c0-7.42-6.015-13.434-13.435-13.434h-412.567c-7.42 0-13.435 6.015-13.435 13.434v93.092c4.869 9.843 10.366 19.319 16.464 28.359z" fill="#e9efff"/><path d="m169.396 282.385c0-7.42 6.015-13.434 13.435-13.434h-133.115c-7.42 0-13.435 6.015-13.435 13.434v93.092c4.869 9.843 10.366 19.319 16.464 28.359h133.115c-6.098-9.04-11.595-18.517-16.464-28.359z" fill="#bec8f7"/><path d="m184.61 313.412v-12.089c0-7.209-5.898-13.108-13.108-13.108h-17.363c-7.209 0-13.108 5.899-13.108 13.108v7.806c6.757 0 13.155 1.539 18.863 4.283z" fill="#3c58a0"/><path d="m327.39 313.412v-12.089c0-7.209 5.898-13.108 13.108-13.108h17.363c7.209 0 13.108 5.899 13.108 13.108v7.806c-6.757 0-13.155 1.539-18.863 4.283z" fill="#3c58a0"/><path d="m173.715 288.418c-.721-.124-1.458-.203-2.213-.203h-17.363c-7.209 0-13.108 5.898-13.108 13.108v7.806c6.757 0 13.155 1.538 18.863 4.283h2.927v-12.089c0-6.455 4.731-11.844 10.894-12.905z" fill="#2a428c"/><path d="m360.074 288.418c-.721-.124-1.458-.203-2.213-.203h-17.363c-7.209 0-13.108 5.898-13.108 13.108v12.089h21.79v-12.089c-.001-6.455 4.731-11.844 10.894-12.905z" fill="#2a428c"/><path d="m409.598 0h-307.196c-11.143 0-20.209 9.066-20.209 20.209v177.206 20.235c0 11.144 9.066 20.21 20.209 20.21h307.196c11.143 0 20.209-9.066 20.209-20.21v-20.235-177.206c0-11.143-9.066-20.209-20.209-20.209zm5.09 197.415c0 2.76-2.331 5.091-5.091 5.091h-307.195c-2.759 0-5.091-2.331-5.091-5.091v-177.206c0-2.76 2.331-5.091 5.091-5.091h307.196c2.759 0 5.091 2.331 5.091 5.091v177.206z" fill="#3c58a0"/><path d="m102.402 202.505c-2.759 0-5.091-2.331-5.091-5.09v-177.206c0-2.76 2.331-5.091 5.091-5.091h94.178c.081-2.181 1.406-4.006 2.388-5.062.498-.535.533-1.374.025-1.899-3.184-3.292-1.25-6.53.08-8.082.02-.023.024-.052.042-.075h-96.713c-11.143 0-20.209 9.066-20.209 20.209v177.206 20.235c0 11.144 9.066 20.21 20.209 20.21h101.355c-.067-.146-.152-.285-.265-.402-12.441-12.854-3.84-24.307-.655-27.744.534-.576.462-1.458-.12-1.984-1.982-1.792-2.557-3.598-2.436-5.225z" fill="#2a428c"/><g><path d="m278.535 278.558c-12.438-12.439-32.675-12.439-45.112 0-2.772 2.772-7.266 2.771-10.038-.001s-2.772-7.265 0-10.038c17.973-17.971 47.216-17.971 65.189 0 2.772 2.773 2.772 7.266 0 10.038s-7.266 2.773-10.039.001z" fill="#73c3f9"/></g><g><path d="m295.08 262.013c-21.561-21.561-56.642-21.561-78.203 0-2.772 2.771-7.267 2.771-10.038 0-2.772-2.773-2.772-7.266 0-10.039 27.096-27.095 71.183-27.095 98.28 0 2.772 2.773 2.772 7.266 0 10.039-2.773 2.772-7.267 2.771-10.039 0z" fill="#73c3f9"/></g><path d="m320.319 160.983h-128.639c-27.674 0-50.317-22.643-50.317-50.317 0-27.674 22.643-50.317 50.317-50.317h128.639c27.674 0 50.317 22.643 50.317 50.317.001 27.674-22.642 50.317-50.317 50.317z" fill="#ff4155"/><path d="m191.68 60.348c-27.674 0-50.317 22.643-50.317 50.317 0 27.674 22.643 50.317 50.317 50.317h9.053c.05-2.286 1.384-4.148 2.305-5.157.463-.508.464-1.272.031-1.806-14.998-18.515-1.382-34.188.589-36.283.156-.166.264-.364.322-.583l4.276-16.036c.085-.318.053-.656-.089-.953l-8.059-16.804c-.063-.131-.151-.253-.252-.357-6.946-7.098-2.882-13.293-.82-15.624.496-.561.449-1.393-.079-1.923-1.757-1.76-2.287-3.521-2.203-5.109h-5.074z" fill="#e80054"/><g><path d="m320.319 167.03h-128.638c-31.08 0-56.364-25.285-56.364-56.365s25.285-56.365 56.364-56.365h128.639c31.08 0 56.365 25.285 56.365 56.365-.001 31.081-25.286 56.365-56.366 56.365zm-128.638-100.635c-24.41 0-44.27 19.859-44.27 44.27s19.86 44.27 44.27 44.27h128.639c24.411 0 44.27-19.859 44.27-44.27s-19.859-44.27-44.27-44.27z" fill="#ff7186"/></g><path d="m203.389 154.936h-11.708c-24.41 0-44.27-19.859-44.27-44.27s19.86-44.27 44.27-44.27h7.697c-.019-.34-.16-.676-.421-.938-4.219-4.227-1.418-8.47.172-10.266.225-.254.336-.573.34-.891h-7.788c-31.08 0-56.364 25.285-56.364 56.365s25.285 56.365 56.364 56.365h11.647c-.008-.339-.137-.677-.385-.943-4.188-4.483-1.449-8.568.096-10.261.23-.254.345-.571.35-.891z" fill="#ff4155"/><g><path d="m387.07 47.297h-14.482c-3.34 0-6.047-2.708-6.047-6.047s2.708-6.047 6.047-6.047h14.482c3.34 0 6.047 2.708 6.047 6.047s-2.708 6.047-6.047 6.047z" fill="#e9efff"/></g><g fill="#e9efff"><path d="m282.225 87.027c-.021-.056-.043-.112-.066-.167-1.093-2.654-3.651-4.367-6.52-4.367-.002 0-.006 0-.009 0-2.872.004-5.43 1.724-6.517 4.383-.019.045-.036.091-.054.136l-16.616 43.626c-1.189 3.121.378 6.615 3.499 7.804 3.129 1.191 6.617-.384 7.804-3.499l2.655-6.97h18.349l2.624 6.953c1.18 3.125 4.668 4.703 7.793 3.523 3.124-1.179 4.702-4.668 3.523-7.792zm-11.217 28.851 4.61-12.104 4.568 12.104z"/><path d="m241.55 126.706c-.011 0-.023 0-.034 0-2.869.016-6.451.031-9.414.035v-38.201c0-3.34-2.708-6.047-6.047-6.047s-6.047 2.708-6.047 6.047v44.213c0 2.947 2.124 5.464 5.028 5.961 1.224.209 11.476.115 16.548.087 3.34-.019 6.032-2.741 6.013-6.081-.019-3.329-2.723-6.014-6.047-6.014z"/><path d="m332.604 83.585c-2.799-1.822-6.544-1.031-8.367 1.769l-8.958 13.761-9.063-13.88c-1.827-2.797-5.575-3.583-8.37-1.757-2.797 1.826-3.583 5.573-1.757 8.369l13.146 20.134-.051 20.796c-.008 3.34 2.693 6.054 6.032 6.062h.015c3.333 0 6.038-2.698 6.047-6.033l.051-20.817 13.043-20.037c1.823-2.8 1.031-6.546-1.768-8.367z"/><path d="m195.016 82.493h-12.321c-3.33 0-6.047 2.713-6.047 6.047v44.251c0 3.34 2.708 6.047 6.047 6.047s6.047-2.708 6.047-6.047v-13.206c2.334-.012 4.804-.022 6.274-.022 10.355 0 18.779-8.315 18.779-18.535s-8.424-18.535-18.779-18.535zm0 24.975c-1.46 0-3.9.01-6.221.022-.012-2.408-.022-4.959-.022-6.462 0-1.279-.006-3.915-.013-6.44h6.256c3.624 0 6.685 2.949 6.685 6.44s-3.061 6.44-6.685 6.44z"/></g><g><path d="m409.598 208.552h-307.196c-6.141 0-11.138-4.996-11.138-11.138v-177.205c0-6.142 4.997-11.138 11.138-11.138h307.196c6.141 0 11.138 4.996 11.138 11.138v177.206c0 6.141-4.997 11.137-11.138 11.137zm-306.239-12.094h305.282v-175.292h-305.282z" fill="#6289cc"/></g><path d="m91.264 20.209v177.206c0 6.142 4.996 11.138 11.138 11.138h100.753c-.055-.303-.189-.597-.438-.822-4.685-4.235-1.552-8.56.206-10.38.24-.249.364-.569.378-.893h-99.943v-175.292h96.101c-.042-.309-.179-.609-.423-.84-4.523-4.307-1.771-8.439-.069-10.269.257-.276.385-.632.384-.985h-96.95c-6.14-.001-11.137 4.995-11.137 11.137z" fill="#3c58a0"/><path d="m410.449 365.219c-6.294 17.052-23.336 28.943-42.865 27.407-20.378-1.603-36.867-18.033-38.537-38.406-1.591-19.41 10.088-36.376 26.929-42.824h-50.499v29.853c0 6.613-5.361 11.974-11.975 11.974h-75.004c-6.613 0-11.974-5.361-11.974-11.974v-29.853h-50.5c16.841 6.448 28.521 23.414 26.929 42.824-1.67 20.373-18.159 36.803-38.537 38.406-19.529 1.536-36.571-10.355-42.865-27.407-5.354 15.828-13.531 43.226-18.498 75.311 19.349 19.285 41.903 35.357 66.796 47.342l10.671-28.445c7.768-20.707 29.49-32.641 51.133-28.093h88.694c21.643-4.548 43.365 7.386 51.133 28.093l10.671 28.445c24.893-11.985 47.446-28.057 66.795-47.342-4.967-32.085-13.144-59.483-18.497-75.311z" fill="#3c58a0"/><path d="m208.873 350.691.078-2.237c-1.517-2.006-2.427-4.497-2.427-7.206v-29.853h-50.5c16.841 6.448 28.521 23.414 26.929 42.824-1.67 20.373-18.159 36.803-38.537 38.406-19.529 1.536-36.571-10.355-42.865-27.407-5.354 15.828-13.531 43.226-18.498 75.311 10.378 10.344 21.686 19.753 33.775 28.113-1.764-7.039.393-12.825.393-12.825s2.333-7.984 9.667-29.317c7.333-21.333 34.371-16.914 34.371-16.914l35.108-39.397c-4.021-14.061 12.506-19.498 12.506-19.498z" fill="#2a428c"/><ellipse cx="256" cy="402.44" fill="#ff4155" rx="11.76" ry="11.76" transform="matrix(.924 -.383 .383 .924 -134.521 128.601)"/><circle cx="258.02" cy="399.634" fill="#ff7186" r="5.285"/><path d="m306.988 341.248v-29.852c-31.05 0-70.927 0-101.976 0v29.852c0 7.448 6.038 13.487 13.487 13.487h75.003c7.448 0 13.486-6.038 13.486-13.487z" fill="#2a428c"/><path d="m244.24 341.248v-29.852c-13.718 0-27.144 0-39.229 0v29.852c0 7.448 6.038 13.487 13.486 13.487h39.229c-7.447 0-13.486-6.038-13.486-13.487z" fill="#1c2e7a"/><g><path d="m267.01 297.182c-1.817 0-3.633-.693-5.019-2.079-3.314-3.313-8.708-3.314-12.023 0-2.772 2.771-7.266 2.772-10.039-.001-2.772-2.772-2.771-7.266 0-10.038 8.85-8.85 23.25-8.85 32.1 0 2.772 2.772 2.772 7.266 0 10.038-1.386 1.387-3.203 2.08-5.019 2.08z" fill="#73c3f9"/></g><circle cx="370.969" cy="350.691" fill="#2a428c" r="43.579"/><path d="m405.223 377.615c-18.383-.009-16.108-16.696-16.108-16.696l-9.978-12.451c-5.876 0-5.639-6.025-5.639-6.025l-12.757-9.898c-16.216-1.076-13.872-18.056-13.856-18.172-11.748 7.806-19.496 21.155-19.496 36.318 0 24.068 19.511 43.579 43.579 43.579 13.903.001 26.275-6.517 34.255-16.655z" fill="#1c2e7a"/><path d="m352.823 340.464c-5.64 0-10.228 4.588-10.228 10.228s4.588 10.227 10.228 10.227c5.639 0 10.228-4.588 10.228-10.227-.001-5.64-4.589-10.228-10.228-10.228z" fill="#73c3f9"/><path d="m389.115 340.464c-5.639 0-10.227 4.588-10.227 10.228s4.588 10.227 10.227 10.227c5.64 0 10.228-4.588 10.228-10.227 0-5.64-4.589-10.228-10.228-10.228z" fill="#ff4155"/><path d="m370.969 358.61c-5.639 0-10.227 4.588-10.227 10.228s4.588 10.228 10.227 10.228c5.64 0 10.228-4.588 10.228-10.228s-4.588-10.228-10.228-10.228z" fill="#50dd89"/><path d="m370.969 322.317c-5.639 0-10.227 4.589-10.227 10.229s4.588 10.227 10.227 10.227c5.64 0 10.228-4.588 10.228-10.227s-4.588-10.229-10.228-10.229z" fill="#ffdd40"/><circle cx="141.031" cy="350.691" fill="#3c58a0" r="43.579"/><path d="m155.735 359.67-7.012-11.145c-6.081 0-5.526-5.526-5.526-5.526l-10.289-19.981c-9.98-1.857-6.48-13.39-6.48-13.39-16.884 6.005-28.975 22.119-28.975 41.063 0 24.068 19.511 43.579 43.579 43.579 14.318 0 27.022-6.906 34.967-17.568-21.221-.001-20.264-17.032-20.264-17.032z" fill="#1c2e7a"/><circle cx="196.367" cy="405.297" fill="#2a428c" r="35.108"/><path d="m152.94 343.083-4.216 5.442c-.988 1.275-.988 3.057 0 4.332l4.216 5.442c.67.865 1.702 1.371 2.796 1.371h10.667c1.953 0 3.536-1.583 3.536-3.536v-10.885c0-1.953-1.583-3.536-3.536-3.536h-10.667c-1.094 0-2.127.506-2.796 1.37z" fill="#6289cc"/><path d="m129.122 343.083 4.216 5.442c.988 1.275.988 3.057 0 4.332l-4.216 5.442c-.67.865-1.702 1.371-2.796 1.371h-10.666c-1.953 0-3.536-1.583-3.536-3.536v-10.885c0-1.953 1.583-3.536 3.536-3.536h10.667c1.094 0 2.126.506 2.795 1.37z" fill="#3c58a0"/><path d="m133.423 338.783 5.442 4.216c1.275.988 3.057.988 4.332 0l5.442-4.216c.865-.67 1.37-1.702 1.37-2.796v-10.667c0-1.953-1.583-3.536-3.536-3.536h-10.885c-1.953 0-3.536 1.583-3.536 3.536v10.667c0 1.094.506 2.126 1.371 2.796z" fill="#6289cc"/><path d="m133.423 362.6 5.442-4.216c1.275-.988 3.057-.988 4.332 0l5.442 4.216c.865.67 1.37 1.702 1.37 2.796v10.667c0 1.953-1.583 3.536-3.536 3.536h-10.885c-1.953 0-3.536-1.583-3.536-3.536v-10.667c0-1.094.506-2.126 1.371-2.796z" fill="#3c58a0"/><path d="m220.074 431.188c-13.016-1.54-8.967-15.34-8.967-15.34l-23.792-26.258c-12.965 0-11.346-12.669-11.318-12.878-8.917 6.366-14.737 16.793-14.737 28.585 0 19.39 15.718 35.108 35.108 35.108 9.138 0 17.46-3.494 23.706-9.217z" fill="#1c2e7a"/><circle cx="196.367" cy="405.297" fill="#3c58a0" r="18.131"/><ellipse cx="200.492" cy="401.251" fill="#6289cc" rx="8.335" ry="8.335" transform="matrix(.924 -.383 .383 .924 -138.291 107.269)"/><circle cx="315.633" cy="405.297" fill="#2a428c" r="35.108"/><path d="m339.34 431.188c-13.016-1.54-8.967-15.34-8.967-15.34l-23.792-26.258c-12.965 0-11.346-12.669-11.318-12.878-8.917 6.366-14.737 16.793-14.737 28.585 0 19.39 15.718 35.108 35.108 35.108 9.138 0 17.46-3.494 23.706-9.217z" fill="#1c2e7a"/><circle cx="315.633" cy="405.297" fill="#3c58a0" r="18.131"/><ellipse cx="319.758" cy="401.251" fill="#6289cc" rx="8.335" ry="8.335" transform="matrix(.924 -.383 .383 .924 -129.212 152.91)"/></g></svg>