<svg height="512" viewBox="0 0 64 64" width="512" xmlns="http://www.w3.org/2000/svg"><g id="virus-covid19-coronavirus-gel-handwash"><path d="m35 41.4a1.951 1.951 0 0 0 1.29-1.08 2.064 2.064 0 0 0 -.91-2.63l-9.43-5.45a3 3 0 0 0 4.1-1.1l.5-.86-8.95-5.17a3.993 3.993 0 0 0 -3.04-.4l-.9.24a4.013 4.013 0 0 1 -3.03-.4l-4.63-2.67-7 12.12 4.63 2.67a3.987 3.987 0 0 1 1.86 2.43l.24.9a4.054 4.054 0 0 0 1.85 2.42l.248-.248a4 4 0 0 1 2.829-1.172h10.343v1a3 3 0 0 1 -3 3h10.888a2.17 2.17 0 0 1 1.743.88.356.356 0 0 0 .1-.02 1.99 1.99 0 0 0 1.3-1.08 2.078 2.078 0 0 0 -.91-2.63l-1.64-.94a1.987 1.987 0 0 0 1.519.19z" fill="#ff9e84"/><path d="m12.58 41.42a4.054 4.054 0 0 1 -1.85-2.42l-.24-.9a3.987 3.987 0 0 0 -1.86-2.43l-5-2.766-.63 1.096 4.63 2.67a3.987 3.987 0 0 1 1.86 2.43l.24.9a4.054 4.054 0 0 0 1.85 2.42l.248-.248a3.979 3.979 0 0 1 .939-.676z" fill="#ff9478"/><path d="m36.2 43.933a1.986 1.986 0 0 1 -1.99.005l-9.526-5.5a1 1 0 0 0 -1.366.366 1 1 0 0 0 .366 1.366l9.526 5.5a2.015 2.015 0 0 0 2.732-.732 1.977 1.977 0 0 0 .258-1.005z" fill="#ff9478"/><path d="m36.471 39.469a1.993 1.993 0 0 1 -.474.2 1.957 1.957 0 0 1 -1.516-.194l-7.794-4.5a1 1 0 0 0 -1.366.366 1 1 0 0 0 .366 1.366l7.794 4.5a2.015 2.015 0 0 0 2.732-.732 1.98 1.98 0 0 0 .258-1.006z" fill="#ff9478"/><path d="m25.132 29.457a1.014 1.014 0 0 0 -1.265.228 4 4 0 0 1 -4.975.789 1 1 0 0 0 -1.366.366 1 1 0 0 0 .366 1.366 4 4 0 0 0 5.464-1.464l2.6 1.5a2.992 2.992 0 0 0 3.439-.324l-2.441-1.408z" fill="#ff9478"/><path d="m34.888 49h-1.888a2.012 2.012 0 0 0 1.992-2.177 1.865 1.865 0 0 0 -.361-.943 2.17 2.17 0 0 0 -1.743-.88h-10.888a3 3 0 0 0 3-3v-1h-10.343a4 4 0 0 0 -2.829 1.172l-.248.248-.408.408a4 4 0 0 1 -2.829 1.172h-5.343v14h5.343a4 4 0 0 1 2.829 1.172l.656.656a4 4 0 0 0 2.829 1.172h14.343a2.015 2.015 0 0 0 2-2 2.006 2.006 0 0 0 -2-2h4a2.015 2.015 0 0 0 2-2 2.006 2.006 0 0 0 -2-2h2a2.012 2.012 0 0 0 1.992-2.177 2.075 2.075 0 0 0 -2.104-1.823z" fill="#ffa791"/><path d="m61 55h-20v4a2 2 0 0 0 2 2h16a2 2 0 0 0 2-2z" fill="#9bc9ff"/><path d="m61 23a2 2 0 0 0 -2-2h-16a2 2 0 0 0 -2 2v8h20z" fill="#9bc9ff"/><path d="m57 17h-3-6-3v4h12z" fill="#a7a9ac"/><path d="m55 17h2v4h-2z" fill="#939598"/><path d="m54 7h-1-4-1v4 6h6z" fill="#57a4ff"/><path d="m53 7h-1v10h2v-10z" fill="#2488ff"/><path d="m41 31h20v24h-20z" fill="#006df0"/><path d="m59 55v4a2 2 0 0 1 -2 2h2a2 2 0 0 0 2-2v-4z" fill="#57a4ff"/><path d="m59 21h-2a2 2 0 0 1 2 2v8h2v-8a2 2 0 0 0 -2-2z" fill="#57a4ff"/><path d="m59 31h2v24h-2z" fill="#005ece"/><path d="m53 37h-4v4h-4v4h4v4h4v-4h4v-4h-4z" fill="#ed1c24"/><path d="m38 7-4 3 2 3 3-2h9v-4z" fill="#006df0"/><path d="m49 3h4v4h-4z" fill="#004fac"/><path d="m31 24a3 3 0 0 0 6 0c0-1.657-3-5-3-5s-3 3.343-3 5z" fill="#006df0"/><path d="m28 13s-2 1.895-2 3a2 2 0 0 0 4 0c0-1.1-2-3-2-3z" fill="#006df0"/><circle cx="20" cy="19" fill="#57a4ff" r="2"/><circle cx="12" cy="14" fill="#9bc9ff" r="2"/><g fill="#ff9478"><path d="m30.41 58.41a1.955 1.955 0 0 1 -1.41.59h-14.343a4 4 0 0 1 -2.829-1.172l-.656-.656a4 4 0 0 0 -2.829-1.172h-5.343v2h5.343a4 4 0 0 1 2.829 1.172l.656.656a4 4 0 0 0 2.829 1.172h14.343a1.984 1.984 0 0 0 1.721-3 1.938 1.938 0 0 1 -.311.41z"/><path d="m36.721 50a1.987 1.987 0 0 1 -1.721 1h-11a1 1 0 0 0 -1 1 1 1 0 0 0 1 1h11a1.984 1.984 0 0 0 1.721-3z"/><path d="m34.721 46a1.987 1.987 0 0 1 -1.721 1h-9a1 1 0 0 0 -1 1 1 1 0 0 0 1 1h9a1.984 1.984 0 0 0 1.721-3z"/><path d="m34.721 54a1.987 1.987 0 0 1 -1.721 1h-9a1 1 0 0 0 -1 1 1 1 0 0 0 1 1h9a1.984 1.984 0 0 0 1.721-3z"/><path d="m19 44a1 1 0 0 0 1 1h2a2.99 2.99 0 0 0 2.816-2h-4.816a1 1 0 0 0 -1 1z"/></g><path d="m18 10h1v1a1 1 0 0 0 2 0v-1h1a1 1 0 0 0 0-2h-1v-1a1 1 0 0 0 -2 0v1h-1a1 1 0 0 0 0 2z" fill="#9bc9ff"/></g></svg>