<svg id="Layer_1" enable-background="new 0 0 512 512" height="512" viewBox="0 0 512 512" width="512" xmlns="http://www.w3.org/2000/svg"><g><path d="m462.77 482.87v21.63c0 4.14-3.36 7.5-7.5 7.5h-398.54c-4.14 0-7.5-3.36-7.5-7.5v-21.63c0-29.36 20.82-54.59 49.65-60.17l91-17.62 28.33-5.48 74.62-.19s.02 0 .05.01l29.28 5.67 90.97 17.61c28.82 5.58 49.64 30.81 49.64 60.17z" fill="#ffe527"/><path d="m462.77 482.87v21.63c0 4.14-3.36 7.5-7.5 7.5h-32.81c3.3 0 5.98-3.36 5.98-7.5v-11.63c0-29.36-17.72-51.19-39.61-60.17-31.43-12.89-94.01-32.66-95.95-33.28l29.28 5.67 90.97 17.61c28.82 5.58 49.64 30.81 49.64 60.17z" fill="#ffbd29"/><path d="m322.16 405.09c-.13 1.23-.3 2.45-.5 3.66-5.16 31.59-32.59 55.7-65.64 55.7-34.32 0-62.57-25.99-66.14-59.37l28.33-5.48 74.62-.19s.02 0 .05.01z" fill="#e4f4ff"/><path d="m292.88 399.42 29.28 5.67c-.13 1.23-.3 2.45-.5 3.66-15.93-5.26-27.95-9.06-28.78-9.33z" fill="#c0eaf7"/><path d="m396.69 102.39v86.59h-281.73v-86.59c0-16.92 13.72-30.63 30.64-30.63h-.48c-17.85 0-32.32-14.47-32.32-32.32v-34.77c0-2.57 2.09-4.66 4.67-4.66l137.28-.01h39.73c19.82 0 37.76 8.03 50.74 21.02 12.99 12.98 21.02 30.92 21.02 50.74 16.84.1 30.45 13.77 30.45 30.63z" fill="#4b6675"/><path d="m396.69 102.39v86.59h-20v-76.59c0-16.86-13.61-30.53-30.45-30.63 0-19.82-2.96-40.26-20.88-55.74-17.88-15.45-50.69-25.97-70.47-26.02h39.59c19.82 0 37.76 8.03 50.74 21.02 12.99 12.98 21.02 30.92 21.02 50.74 16.84.1 30.45 13.77 30.45 30.63z" fill="#294a59"/><path d="m288.29 386.1c.88 4.58 2.4 9.06 4.54 13.31 0 10.3-4.17 19.63-10.93 26.38-6.75 6.75-16.08 10.93-26.38 10.93s-19.63-4.18-26.38-10.93-10.93-16.08-10.93-26.38c2.18-4.32 3.72-8.89 4.59-13.56.59-3.11.88-6.27.88-9.43 0-5.96-1.04-11.94-3.15-17.66l-2.32-6.3h74.62l-2.32 6.3c-3.25 8.83-3.97 18.28-2.22 27.34z" fill="#ffeac5"/><path d="m290.51 358.76c-3.25 8.83-3.97 18.28-2.22 27.34-10.02 4.87-21.11 7.45-32.36 7.45h-.29c-11.42 0-22.68-2.67-32.84-7.7.59-3.11.88-6.27.88-9.43 0-5.96-1.04-11.94-3.15-17.66l-2.32-6.3h74.62z" fill="#ffc69f"/><g fill="#ffc69f"><path d="m115.198 176.443c-7.579 7.672-11.68 17.836-11.548 28.62.267 21.8 18.222 39.536 40.023 39.536h7.5v-80.053h-7.5c-10.784 0-20.897 4.225-28.475 11.897z"/><path d="m396.372 176.479c-7.579-7.672-17.692-11.897-28.477-11.897h-7.5v80.053h7.5c21.801 0 39.756-17.735 40.024-39.536.133-10.783-3.968-20.947-11.547-28.62z"/></g><path d="m369.46 258.81c0 27.71-22.47 59.94-66.78 95.79-13.16 10.71-29.76 16.6-46.75 16.6h-.29c-16.98 0-33.6-5.91-46.79-16.64-44.28-35.83-66.74-68.05-66.74-95.75 0-3 .12-5.9.36-8.61 1.39-14.22 1.37-67.51-.04-105.67-.28-7.7 2.9-14.99 8.73-20.01 5.84-5.03 13.53-7.1 21.1-5.69l28.38 5.31 9.77 1.83c29.98 5.62 60.39 5.63 90.38.05l38.54-7.18c7.58-1.41 15.26.67 21.09 5.7 5.83 5.02 9.01 12.31 8.72 20-.17 4.56-.32 9.33-.45 14.23-.94 36.09-.81 78.86.41 91.29.24 2.85.36 5.77.36 8.75z" fill="#ffeac5"/><path d="m369.14 144.54c-.17 4.56-.32 9.33-.45 14.23-1.05-5.49-3.92-10.49-8.27-14.23-5.83-5.03-13.51-7.11-21.09-5.7 0 0-28.78 3.23-38.54 4.18-47.32 4.59-77.73-6.35-100.15-18.88l9.77 1.83c29.98 5.62 60.39 5.63 90.38.05l38.54-7.18c7.58-1.41 15.26.67 21.09 5.7 5.83 5.02 9.01 12.31 8.72 20z" fill="#ffc69f"/><g fill="#00b1ff"><path d="m200.23 159.118c-2.419 0-4.69 1.167-6.098 3.134-4.306 6.014-18.354 26.486-18.354 37.407 0 13.483 10.969 24.452 24.452 24.452s24.452-10.969 24.452-24.452c0-10.921-14.048-31.393-18.354-37.407-1.408-1.967-3.678-3.134-6.098-3.134z"/><path d="m177.276 276.514c-2.419 0-4.69 1.167-6.098 3.134-4.306 6.014-18.354 26.486-18.354 37.407 0 13.483 10.969 24.452 24.452 24.452s24.452-10.969 24.452-24.452c0-10.921-14.048-31.393-18.354-37.407-1.408-1.967-3.678-3.134-6.098-3.134z"/><path d="m317.899 211.1c-1.408-1.967-3.679-3.134-6.098-3.134s-4.69 1.167-6.098 3.134c-4.306 6.014-18.354 26.486-18.354 37.407 0 13.483 10.969 24.452 24.452 24.452s24.452-10.969 24.452-24.452c0-10.922-14.048-31.393-18.354-37.407z"/></g></g></svg>